<svg width="500" height="500" viewBox="0 0 500 500" xmlns="http://www.w3.org/2000/svg">
  <defs>
    <radialGradient id="wiCore" cx="45%" cy="40%" r="70%">
      <stop offset="0%" stop-color="#eaf7ff"/>
      <stop offset="40%" stop-color="#8fc7e8"/>
      <stop offset="100%" stop-color="#2f6fa0"/>
    </radialGradient>
    <radialGradient id="wiGlow" cx="50%" cy="50%" r="50%">
      <stop offset="0%" stop-color="#cfefff" stop-opacity="0.9"/>
      <stop offset="100%" stop-color="#cfefff" stop-opacity="0"/>
    </radialGradient>
    <radialGradient id="wiShadow" cx="50%" cy="50%" r="50%">
      <stop offset="0%" stop-color="#000000" stop-opacity="0.3"/>
      <stop offset="100%" stop-color="#000000" stop-opacity="0"/>
    </radialGradient>
  </defs>

  <ellipse cx="250" cy="410" rx="80" ry="16" fill="url(#wiShadow)"/>

  <circle cx="250" cy="250" r="120" fill="url(#wiGlow)">
    <animate attributeName="r" values="100;130;100" dur="1.8s" repeatCount="indefinite"/>
    <animate attributeName="opacity" values="0.4;0.75;0.4" dur="1.8s" repeatCount="indefinite"/>
  </circle>

  <g>
    <path d="M250 165 C185 165 150 210 155 260 C160 305 195 340 250 340
             C305 340 340 305 345 260 C350 210 315 165 250 165 Z" fill="url(#wiCore)"/>

    <path d="M250 165 C250 130 235 100 210 90 C225 115 232 140 232 165 Z" fill="url(#wiCore)" opacity="0.8"/>
    <path d="M250 165 C250 130 265 100 290 90 C275 115 268 140 268 165 Z" fill="url(#wiCore)" opacity="0.8"/>

    <path d="M215 250 L242 260 L215 268 Z" fill="#0a2a40"/>
    <path d="M285 250 L258 260 L285 268 Z" fill="#0a2a40"/>
    <ellipse cx="224" cy="259" rx="4" ry="4" fill="#eaffff">
      <animate attributeName="opacity" values="0.6;1;0.6" dur="0.8s" repeatCount="indefinite"/>
    </ellipse>
    <ellipse cx="276" cy="259" rx="4" ry="4" fill="#eaffff">
      <animate attributeName="opacity" values="0.6;1;0.6" dur="0.8s" repeatCount="indefinite"/>
    </ellipse>

    <path d="M225 285 Q250 300 275 285" stroke="#1a4a68" stroke-width="4" stroke-linecap="round" fill="none"/>
  </g>

  <circle cx="150" cy="200" r="6" fill="#cfefff" opacity="0.8">
    <animate attributeName="cy" values="200;180;200" dur="2s" repeatCount="indefinite"/>
    <animate attributeName="opacity" values="0.4;0.9;0.4" dur="2s" repeatCount="indefinite"/>
  </circle>
  <circle cx="360" cy="220" r="5" fill="#cfefff" opacity="0.7">
    <animate attributeName="cy" values="220;200;220" dur="1.6s" repeatCount="indefinite"/>
    <animate attributeName="opacity" values="0.4;0.9;0.4" dur="1.6s" repeatCount="indefinite"/>
  </circle>
  <circle cx="330" cy="330" r="4" fill="#cfefff" opacity="0.7">
    <animate attributeName="cy" values="330;310;330" dur="1.4s" repeatCount="indefinite"/>
  </circle>
</svg>
